<svg width="81" height="81" viewBox="0 0 81 81" fill="none" xmlns="http://www.w3.org/2000/svg">
<path d="M77.625 64.125C77.625 65.9152 76.9138 67.6321 75.648 68.898C74.3821 70.1638 72.6652 70.875 70.875 70.875H10.125C8.33479 70.875 6.6179 70.1638 5.35203 68.898C4.08616 67.6321 3.375 65.9152 3.375 64.125V27C3.375 25.2098 4.08616 23.4929 5.35203 22.227C6.6179 20.9612 8.33479 20.25 10.125 20.25H23.625L30.375 10.125H50.625L57.375 20.25H70.875C72.6652 20.25 74.3821 20.9612 75.648 22.227C76.9138 23.4929 77.625 25.2098 77.625 27V64.125Z" stroke="black" stroke-width="6.75" stroke-linecap="round" stroke-linejoin="round"/>
<path d="M40.5 57.375C47.9558 57.375 54 51.3308 54 43.875C54 36.4192 47.9558 30.375 40.5 30.375C33.0442 30.375 27 36.4192 27 43.875C27 51.3308 33.0442 57.375 40.5 57.375Z" stroke="black" stroke-width="6.75" stroke-linecap="round" stroke-linejoin="round"/>
</svg>
