<svg width="58" height="58" viewBox="0 0 58 58" fill="none" xmlns="http://www.w3.org/2000/svg">
<circle cx="29" cy="29" r="28" fill="#1A52C4" stroke="white" stroke-width="2"/>
<path d="M29 21.9325C30.6039 21.9325 32.1717 21.5001 33.5053 20.6898C34.8389 19.8796 35.8783 18.7279 36.4921 17.3805C37.1059 16.0332 37.2665 14.5505 36.9536 13.1202C36.6407 11.6898 35.8683 10.3759 34.7342 9.34465C33.6001 8.3134 32.1551 7.61111 30.582 7.32659C29.009 7.04208 27.3784 7.1881 25.8966 7.74621C24.4148 8.30431 23.1483 9.24943 22.2572 10.462C21.3661 11.6747 20.8905 13.1003 20.8905 14.5587C20.8905 16.5144 21.7449 18.3899 23.2657 19.7728C24.7865 21.1556 26.8492 21.9325 29 21.9325ZM29 10.8718C29.8019 10.8718 30.5858 11.088 31.2526 11.4932C31.9194 11.8983 32.4391 12.4741 32.746 13.1478C33.0529 13.8215 33.1332 14.5628 32.9768 15.278C32.8203 15.9932 32.4341 16.6501 31.8671 17.1657C31.3 17.6814 30.5775 18.0325 29.791 18.1748C29.0045 18.317 28.1892 18.244 27.4483 17.965C26.7074 17.6859 26.0741 17.2134 25.6286 16.607C25.1831 16.0007 24.9452 15.2879 24.9452 14.5587C24.9452 13.5809 25.3724 12.6431 26.1328 11.9517C26.8933 11.2603 27.9246 10.8718 29 10.8718ZM29 25.6194C25.2361 25.6194 21.6265 26.979 18.9651 29.399C16.3036 31.819 14.8085 35.1012 14.8085 38.5236C14.8085 39.0125 15.0221 39.4814 15.4023 39.8271C15.7825 40.1728 16.2981 40.367 16.8358 40.367C17.3735 40.367 17.8892 40.1728 18.2694 39.8271C18.6496 39.4814 18.8632 39.0125 18.8632 38.5236C18.8632 36.079 19.9312 33.7346 21.8322 32.006C23.7332 30.2774 26.3115 29.3063 29 29.3063C31.6884 29.3063 34.2667 30.2774 36.1677 32.006C38.0688 33.7346 39.1367 36.079 39.1367 38.5236C39.1367 39.0125 39.3503 39.4814 39.7305 39.8271C40.1107 40.1728 40.6264 40.367 41.1641 40.367C41.7018 40.367 42.2175 40.1728 42.5977 39.8271C42.9779 39.4814 43.1915 39.0125 43.1915 38.5236C43.1915 35.1012 41.6963 31.819 39.0349 29.399C36.3734 26.979 32.7638 25.6194 29 25.6194Z" fill="white"/>
</svg>
